<?xml version="1.0" encoding="UTF-8" standalone="no"?>
<!DOCTYPE svg PUBLIC "-//W3C//DTD SVG 1.1//EN" "http://www.w3.org/Graphics/SVG/1.1/DTD/svg11.dtd">
<svg width="100%" height="100%" viewBox="0 0 24 24" version="1.1" xmlns="http://www.w3.org/2000/svg" xmlns:xlink="http://www.w3.org/1999/xlink" xml:space="preserve" xmlns:serif="http://www.serif.com/" style="fill-rule:evenodd;clip-rule:evenodd;stroke-linejoin:round;stroke-miterlimit:2;">
    <path d="M7,22C6.45,22 5.979,21.804 5.588,21.413C5.196,21.021 5,20.55 5,20C5,19.45 5.196,18.979 5.588,18.588C5.979,18.196 6.45,18 7,18C7.55,18 8.021,18.196 8.413,18.588C8.804,18.979 9,19.45 9,20C9,20.55 8.804,21.021 8.413,21.413C8.021,21.804 7.55,22 7,22ZM17,22C16.45,22 15.979,21.804 15.588,21.413C15.196,21.021 15,20.55 15,20C15,19.45 15.196,18.979 15.588,18.588C15.979,18.196 16.45,18 17,18C17.55,18 18.021,18.196 18.413,18.588C18.804,18.979 19,19.45 19,20C19,20.55 18.804,21.021 18.413,21.413C18.021,21.804 17.55,22 17,22ZM6.15,6L8.55,11L15.55,11L18.3,6L6.15,6ZM5.2,4L19.95,4C20.333,4 20.625,4.171 20.825,4.512C21.025,4.854 21.033,5.2 20.85,5.55L17.3,11.95C17.117,12.283 16.871,12.542 16.563,12.725C16.254,12.908 15.917,13 15.55,13L8.1,13L7,15L19,15L19,17L7,17C6.25,17 5.683,16.671 5.3,16.012C4.917,15.354 4.9,14.7 5.25,14.05L6.6,11.6L3,4L1,4L1,2L4.25,2L5.2,4ZM8.55,11L15.55,11L8.55,11Z" style="fill:rgb(57,29,94);fill-rule:nonzero;"/>
</svg>
